<svg xmlns="http://www.w3.org/2000/svg" xmlns:xlink="http://www.w3.org/1999/xlink" preserveAspectRatio="xMidYMid" width="56" height="50" viewBox="0 0 56 50">
  <defs>
    <style>
      .cls-1 {
        fill: #f0c540;
        fill-rule: evenodd;
      }
    </style>
  </defs>
  <path d="M25.697,29.847 C26.553,30.064 27.341,30.469 28.043,31.056 C28.500,31.441 28.561,32.124 28.180,32.583 C27.794,33.044 27.112,33.103 26.653,32.719 C26.204,32.342 25.706,32.085 25.171,31.953 L21.292,30.984 C20.902,30.887 20.601,30.584 20.504,30.196 L20.062,28.427 C19.964,28.037 20.092,27.625 20.389,27.359 C21.259,26.577 21.859,25.366 21.953,24.199 C21.998,23.633 22.466,23.200 23.031,23.200 L23.172,21.441 C22.877,21.437 22.667,21.396 22.466,21.181 C22.262,20.965 22.228,20.761 22.241,20.467 L22.358,18.108 C22.371,17.839 22.483,17.586 22.674,17.395 L23.144,16.925 C23.265,16.795 23.445,16.605 23.005,15.929 C22.847,15.697 22.394,15.004 20.731,15.004 C20.161,15.004 18.974,15.004 17.943,15.743 C17.761,15.875 17.545,15.945 17.324,15.947 C14.157,15.979 14.157,17.038 14.157,18.158 C14.157,18.541 14.289,19.722 14.372,20.376 C14.411,20.686 14.315,20.993 14.110,21.229 C13.904,21.461 13.609,21.595 13.297,21.595 L13.577,23.322 C14.142,23.322 14.623,23.631 14.668,24.194 C14.762,25.342 15.318,26.501 16.161,27.296 C16.449,27.565 16.568,27.968 16.473,28.346 L16.011,30.194 C15.914,30.584 15.611,30.885 15.223,30.982 L11.342,31.951 C10.038,32.275 9.039,33.259 8.669,34.496 L22.709,34.498 C23.306,34.498 23.791,34.983 23.791,35.580 C23.791,36.178 23.306,36.663 22.708,36.663 L7.423,36.663 C6.826,36.663 6.341,36.178 6.341,35.580 C6.341,32.864 8.182,30.508 10.813,29.849 L14.064,29.039 L14.222,28.403 C13.432,27.493 12.864,26.351 12.622,25.169 C11.961,24.881 11.513,24.296 11.424,23.590 L11.190,21.705 C11.116,21.134 11.294,20.553 11.679,20.118 C11.809,19.973 11.955,19.847 12.115,19.745 C12.054,19.187 11.989,18.517 11.989,18.160 C11.989,16.347 12.513,13.945 16.971,13.789 C18.483,12.838 20.040,12.838 20.731,12.838 C23.077,12.838 24.244,13.876 24.812,14.742 C26.007,16.568 25.251,17.837 24.693,18.428 L24.495,18.628 L24.439,19.778 C24.584,19.875 24.718,19.992 24.835,20.127 C25.214,20.557 25.390,21.136 25.318,21.705 L25.084,23.586 C25.000,24.268 24.578,24.837 23.999,25.136 C23.752,26.371 23.152,27.560 22.310,28.491 L22.446,29.037 L25.697,29.847 ZM54.908,33.003 C54.310,33.003 53.825,32.518 53.825,31.920 L53.825,8.672 L2.175,8.672 L2.175,35.581 C2.175,37.372 3.632,38.829 5.424,38.829 L30.447,38.829 C31.045,38.829 31.530,39.315 31.530,39.912 C31.530,40.510 31.047,40.996 30.447,40.996 L5.424,40.996 C2.437,40.996 0.009,38.567 0.009,35.581 L0.009,5.424 C0.009,2.437 2.437,0.009 5.424,0.009 L50.576,0.009 C53.563,0.009 55.991,2.437 55.991,5.424 L55.991,31.920 C55.991,32.518 55.506,33.003 54.908,33.003 ZM53.825,5.424 C53.825,3.632 52.367,2.175 50.576,2.175 L5.424,2.175 C3.632,2.175 2.175,3.632 2.175,5.424 L2.175,6.507 L53.825,6.507 L53.825,5.424 ZM33.415,17.170 L39.912,17.170 C40.510,17.170 40.995,17.655 40.995,18.253 C40.995,18.851 40.510,19.336 39.912,19.336 L33.415,19.336 C32.817,19.336 32.332,18.851 32.332,18.253 C32.332,17.655 32.817,17.170 33.415,17.170 ZM48.576,19.336 L44.244,19.336 C43.646,19.336 43.161,18.851 43.161,18.253 C43.161,17.655 43.646,17.170 44.244,17.170 L48.576,17.170 C49.174,17.170 49.659,17.655 49.659,18.253 C49.659,18.851 49.174,19.336 48.576,19.336 ZM33.415,23.668 L48.576,23.668 C49.174,23.668 49.659,24.153 49.659,24.751 C49.659,25.349 49.174,25.834 48.576,25.834 L33.415,25.834 C32.817,25.834 32.332,25.349 32.332,24.751 C32.332,24.153 32.817,23.668 33.415,23.668 ZM44.000,30.000 C49.500,30.000 54.000,34.500 54.000,40.000 C54.000,45.500 49.500,50.000 44.000,50.000 C38.500,50.000 34.000,45.500 34.000,40.000 C34.000,34.500 38.500,30.000 44.000,30.000 ZM44.000,48.000 C48.400,48.000 52.000,44.400 52.000,40.000 C52.000,35.600 48.400,32.000 44.000,32.000 C39.600,32.000 36.000,35.600 36.000,40.000 C36.000,44.400 39.600,48.000 44.000,48.000 ZM43.000,35.000 L45.000,35.000 L45.000,39.000 L49.000,39.000 L49.000,41.000 L45.000,41.000 L45.000,45.000 L43.000,45.000 L43.000,41.000 L39.000,41.000 L39.000,39.000 L43.000,39.000 L43.000,35.000 Z" class="cls-1"/>
</svg>
