<svg xmlns="http://www.w3.org/2000/svg" xmlns:xlink="http://www.w3.org/1999/xlink" preserveAspectRatio="xMidYMid" width="58" height="58" viewBox="0 0 58 58">
  <defs>
    <style>
      .cls-1 {
        fill: #f0c540;
        fill-rule: evenodd;
      }
    </style>
  </defs>
  <path d="M29.000,58.000 C12.984,58.000 -0.000,45.016 -0.000,29.000 C-0.000,12.984 12.984,-0.000 29.000,-0.000 C45.016,-0.000 58.000,12.984 58.000,29.000 C58.000,45.016 45.016,58.000 29.000,58.000 ZM29.000,2.600 C14.419,2.600 2.600,14.419 2.600,29.000 C2.600,43.580 14.419,55.400 29.000,55.400 C43.580,55.400 55.400,43.580 55.400,29.000 C55.400,14.419 43.580,2.600 29.000,2.600 ZM45.640,41.020 L40.794,41.020 C40.218,41.020 39.704,40.660 39.509,40.119 L37.103,33.458 L26.568,33.458 C25.814,33.458 25.202,32.848 25.202,32.095 L25.202,17.678 C25.202,16.925 25.814,16.315 26.568,16.315 C27.323,16.315 27.934,16.925 27.934,17.678 L27.934,21.885 L37.341,21.885 C38.096,21.885 38.707,22.495 38.707,23.248 C38.707,24.001 38.096,24.611 37.341,24.611 L27.934,24.611 L27.934,30.732 L38.063,30.732 C38.639,30.732 39.153,31.092 39.348,31.633 L41.754,38.294 L45.640,38.294 C46.395,38.294 47.006,38.904 47.006,39.657 C47.006,40.410 46.394,41.020 45.640,41.020 ZM26.620,14.617 C24.787,14.617 23.302,13.135 23.302,11.305 C23.302,9.478 24.787,7.994 26.620,7.994 C28.453,7.994 29.938,9.478 29.939,11.305 C29.939,13.135 28.453,14.617 26.620,14.617 ZM16.726,34.052 C16.726,39.692 21.323,44.279 26.974,44.279 C29.712,44.279 32.285,43.216 34.221,41.283 C34.755,40.751 35.619,40.751 36.153,41.283 C36.686,41.815 36.687,42.678 36.153,43.211 C33.701,45.658 30.441,47.005 26.974,47.005 C19.816,47.005 13.994,41.195 13.994,34.052 C13.994,30.591 15.344,27.338 17.795,24.891 C18.329,24.359 19.194,24.359 19.727,24.891 C20.260,25.424 20.261,26.287 19.727,26.819 C17.792,28.751 16.726,31.320 16.726,34.052 Z" class="cls-1"/>
</svg>
