<svg xmlns="http://www.w3.org/2000/svg" xmlns:xlink="http://www.w3.org/1999/xlink" preserveAspectRatio="xMidYMid" width="52.938" height="59.62" viewBox="0 0 52.938 59.62">
  <defs>
    <style>
      .cls-1 {
        fill: #f0c540;
        fill-rule: evenodd;
      }
    </style>
  </defs>
  <path d="M39.805,59.542 C39.686,59.584 39.562,59.606 39.437,59.606 C39.313,59.606 39.189,59.584 39.070,59.542 C25.640,54.749 25.851,43.392 26.004,35.099 C26.021,34.208 26.037,33.366 26.037,32.551 C26.037,31.913 26.539,31.396 27.159,31.396 C31.957,31.396 35.610,29.976 38.655,26.927 C39.091,26.491 39.784,26.491 40.220,26.927 C43.265,29.976 46.919,31.396 51.717,31.396 C52.337,31.396 52.839,31.913 52.839,32.551 C52.839,33.365 52.855,34.207 52.872,35.098 C53.025,43.391 53.236,54.749 39.805,59.542 ZM50.628,35.142 C50.619,34.642 50.610,34.158 50.603,33.682 C46.109,33.487 42.514,32.085 39.437,29.325 C36.361,32.085 32.767,33.487 28.273,33.682 C28.267,34.158 28.258,34.643 28.248,35.143 C28.094,43.479 27.920,52.916 39.437,57.224 C50.956,52.916 50.782,43.479 50.628,35.142 ZM38.679,47.116 C38.460,47.342 38.173,47.454 37.886,47.454 C37.599,47.454 37.311,47.342 37.092,47.116 L33.988,43.920 C33.550,43.468 33.550,42.737 33.988,42.286 C34.426,41.835 35.137,41.835 35.575,42.286 L37.886,44.665 L43.301,39.089 C43.740,38.638 44.450,38.639 44.888,39.090 C45.326,39.541 45.326,40.272 44.888,40.723 L38.679,47.116 ZM8.596,38.098 L20.207,38.098 C20.869,38.098 21.406,38.635 21.406,39.297 C21.406,39.959 20.869,40.496 20.207,40.496 L8.596,40.496 C7.933,40.496 7.397,39.959 7.397,39.297 C7.397,38.635 7.933,38.098 8.596,38.098 ZM8.596,30.864 L19.818,30.864 C20.480,30.864 21.017,31.401 21.017,32.063 C21.017,32.725 20.480,33.261 19.817,33.261 L8.596,33.261 C7.933,33.261 7.397,32.725 7.397,32.063 C7.397,31.401 7.933,30.864 8.596,30.864 ZM30.818,18.794 L8.596,18.794 C7.933,18.794 7.397,18.257 7.397,17.595 C7.397,16.933 7.933,16.396 8.596,16.396 L30.818,16.396 C31.480,16.396 32.017,16.933 32.017,17.595 C32.017,18.257 31.480,18.794 30.818,18.794 ZM30.818,26.028 L8.596,26.028 C7.933,26.028 7.397,25.491 7.397,24.829 C7.397,24.167 7.933,23.630 8.596,23.630 L30.818,23.630 C31.480,23.630 32.017,24.167 32.017,24.829 C32.017,25.491 31.480,26.028 30.818,26.028 ZM37.008,11.569 L30.354,11.569 C28.962,11.569 27.830,10.437 27.830,9.045 L27.830,2.392 L2.531,2.392 C2.461,2.392 2.405,2.449 2.405,2.519 L2.405,48.671 C2.405,48.741 2.461,48.797 2.531,48.797 L23.938,48.797 L23.938,51.195 L2.531,51.195 C1.139,51.195 0.007,50.063 0.007,48.671 L0.007,2.519 C0.007,1.127 1.139,-0.005 2.531,-0.005 L29.029,-0.005 C29.360,-0.005 29.659,0.129 29.876,0.345 C29.876,0.345 29.876,0.345 29.877,0.346 L39.055,9.522 C39.281,9.749 39.400,10.050 39.404,10.358 C39.404,10.362 39.407,10.366 39.406,10.370 L39.406,22.620 L37.008,22.620 L37.008,11.569 ZM30.228,4.088 L30.228,9.045 C30.228,9.115 30.285,9.171 30.354,9.171 L35.313,9.171 L30.228,4.088 Z" class="cls-1"/>
</svg>
