<svg xmlns="http://www.w3.org/2000/svg" width="126" height="43" viewBox="0 0 126 43">
  <defs>
    <style>
      .cls-1 {
        fill: #fff;
      }

      .cls-1, .cls-2 {
        fill-rule: evenodd;
      }

      .cls-2 {
        fill: #f0c540;
      }
    </style>
  </defs>
  <path id="motors" class="cls-1" d="M54.459,22.723A11.383,11.383,0,0,0,57.907,14.5,9.026,9.026,0,0,0,55.223,7.8a9.85,9.85,0,0,0-7.231-2.646,11.314,11.314,0,0,0-8.4,3.522,11.341,11.341,0,0,0-3.448,8.181A9.07,9.07,0,0,0,38.823,23.6a9.8,9.8,0,0,0,7.194,2.646A11.358,11.358,0,0,0,54.459,22.723ZM43.892,19.331a3.822,3.822,0,0,1-.969-2.74,6.1,6.1,0,0,1,1.342-3.82,4.086,4.086,0,0,1,3.355-1.733,3.33,3.33,0,0,1,2.535,1.025,3.775,3.775,0,0,1,.969,2.7,6.149,6.149,0,0,1-1.342,3.857,4.087,4.087,0,0,1-3.355,1.733A3.326,3.326,0,0,1,43.892,19.331Zm24.675,6.131,1.565-5.889a8.21,8.21,0,0,1-2.684.559q-1.6,0-1.6-1.267a6.1,6.1,0,0,1,.186-1.23L67.747,11.3h4.7l1.528-5.7h-4.7L70.654,0.49H63.572L62.193,5.6H59.808L58.28,11.3h2.385l-2.013,7.455A10.129,10.129,0,0,0,58.28,21.4a4.267,4.267,0,0,0,1.547,3.522,7.14,7.14,0,0,0,4.566,1.249,12.5,12.5,0,0,0,4.175-.708h0Zm21.078-2.739A11.383,11.383,0,0,0,93.092,14.5,9.026,9.026,0,0,0,90.408,7.8a9.85,9.85,0,0,0-7.231-2.646,11.314,11.314,0,0,0-8.405,3.522,11.341,11.341,0,0,0-3.448,8.181A9.07,9.07,0,0,0,74.008,23.6,9.8,9.8,0,0,0,81.2,26.246,11.359,11.359,0,0,0,89.644,22.723ZM79.078,19.331a3.823,3.823,0,0,1-.969-2.74,6.1,6.1,0,0,1,1.342-3.82A4.086,4.086,0,0,1,82.8,11.038a3.33,3.33,0,0,1,2.534,1.025,3.776,3.776,0,0,1,.969,2.7,6.148,6.148,0,0,1-1.342,3.857,4.087,4.087,0,0,1-3.355,1.733A3.326,3.326,0,0,1,79.078,19.331Zm19.2,6.43,1.64-6.075q1.826-6.969,7.641-6.97h0.6l2.013-7.454q-4.4-.3-7.566,4.4l1.08-4.063H96.6l-5.4,20.165h7.082Zm22.512-1.584a6.69,6.69,0,0,0,2.274-5.162,4.449,4.449,0,0,0-1.454-3.541,14.6,14.6,0,0,0-4.174-2.348,13.646,13.646,0,0,1-2.2-1.025,1.083,1.083,0,0,1-.6-0.876q0-1.155,1.752-1.155a9.588,9.588,0,0,1,5.7,2.162l3.392-4.249a13,13,0,0,0-3.821-2.013,14.669,14.669,0,0,0-4.9-.82,9.545,9.545,0,0,0-6.43,2.031,6.465,6.465,0,0,0-2.367,5.125A4.446,4.446,0,0,0,109.4,15.79a14.383,14.383,0,0,0,4.231,2.4,15.929,15.929,0,0,1,2.162,1.006,1.064,1.064,0,0,1,.6.895q0,1.23-1.789,1.23a9.448,9.448,0,0,1-3.448-.726,10.75,10.75,0,0,1-3.261-1.995l-3.5,4.137a13.155,13.155,0,0,0,4.454,2.572,16.347,16.347,0,0,0,5.5.932A9.245,9.245,0,0,0,120.785,24.177Z"/>
  <path id="motors_copy" data-name="motors copy" class="cls-2" d="M7.477,25.761l2.87-10.66q1.006-3.653,3.69-3.653A1.9,1.9,0,0,1,16.2,13.573a6.193,6.193,0,0,1-.261,1.64L13.106,25.761h7.082l2.87-10.66q1.006-3.653,3.69-3.653a1.9,1.9,0,0,1,2.162,2.124,6.189,6.189,0,0,1-.261,1.64l-2.8,10.548H32.9L35.842,14.8a14.85,14.85,0,0,0,.6-3.652,6.026,6.026,0,0,0-1.565-4.4,5.869,5.869,0,0,0-4.4-1.6,9.458,9.458,0,0,0-7.305,3.5,5.06,5.06,0,0,0-5.256-3.5,7.777,7.777,0,0,0-5.628,2.683l0.6-2.236H5.8L0.4,25.761H7.477Z"/>
  <path id="Local_car_rental" data-name="Local car rental" class="cls-1" d="M18.849,41.159a0.93,0.93,0,0,0,.424-0.63,0.551,0.551,0,0,0-.1-0.454,0.559,0.559,0,0,0-.47-0.19,1.383,1.383,0,0,0-.265.041,12.23,12.23,0,0,1-1.957.2,9,9,0,0,0-.967.1q-1.03.158-1.252,0.158-0.059,0-.029-0.17,0.024-.135.71-2.467t0.984-3.152a5.857,5.857,0,0,0,.246-0.8,0.544,0.544,0,0,0-.13-0.457,0.561,0.561,0,0,0-.455-0.211,1,1,0,0,0-.585.164,0.874,0.874,0,0,0-.32.369,9.047,9.047,0,0,0-.272.9l-1.384,4.857a11.32,11.32,0,0,1-.434,1.23,3.851,3.851,0,0,0-.2.539,0.826,0.826,0,0,0,.1.539,0.528,0.528,0,0,0,.507.281,3.788,3.788,0,0,0,.92-0.2,11.1,11.1,0,0,1,3.189-.475q0.164,0,.5.029T18.1,41.4A1.334,1.334,0,0,0,18.849,41.159ZM26.284,38.7a4.254,4.254,0,0,0,.253-0.873,2.349,2.349,0,0,0-.31-1.767,1.667,1.667,0,0,0-1.492-.741,3.691,3.691,0,0,0-2.76,1.465,6.168,6.168,0,0,0-1.556,2.977,2,2,0,0,0,.287,1.562,1.513,1.513,0,0,0,1.318.636,4.043,4.043,0,0,0,2.36-.94,5.981,5.981,0,0,0,1.9-2.312V38.7Zm-2.716-1.846a1.368,1.368,0,0,1,.832-0.3,0.656,0.656,0,0,1,.643.39,1.633,1.633,0,0,1,.08.993A3.416,3.416,0,0,1,24,39.873a2.651,2.651,0,0,1-1.664.861,0.428,0.428,0,0,1-.416-0.316,1.506,1.506,0,0,1-.037-0.8,4.187,4.187,0,0,1,.675-1.6,4.883,4.883,0,0,1,1.007-1.16h0.006Zm7.624,4.421A2.539,2.539,0,0,0,32.433,40.1a0.237,0.237,0,0,0-.266-0.322,1.673,1.673,0,0,0-.772.322,3.883,3.883,0,0,1-2.022.668,0.607,0.607,0,0,1-.716-0.791A5.654,5.654,0,0,1,29.81,37.7a2.831,2.831,0,0,1,1.437-1.3q0.217,0,.186.574-0.045.785,0.524,0.785a0.728,0.728,0,0,0,.436-0.2,1.236,1.236,0,0,0,.342-0.759,1.742,1.742,0,0,0-.19-1.151,0.925,0.925,0,0,0-.851-0.554q-1.154,0-2.658,1.717a6.885,6.885,0,0,0-1.764,3.193,1.8,1.8,0,0,0,.246,1.465A1.643,1.643,0,0,0,28.893,42,4.328,4.328,0,0,0,31.192,41.276Zm6.99,0.648a1.3,1.3,0,0,0,.665-0.2,0.733,0.733,0,0,0,.39-0.5,0.279,0.279,0,0,0-.18-0.311,0.454,0.454,0,0,1-.246-0.2,3.348,3.348,0,0,1-.079-0.4,3.686,3.686,0,0,1,.083-1.055,11.847,11.847,0,0,1,.574-1.928,6.1,6.1,0,0,0,.286-0.891q0.091-.515-0.583-0.516a0.738,0.738,0,0,0-.81-0.721,4.644,4.644,0,0,0-3.1,1.755,6.686,6.686,0,0,0-1.966,3.308,1.327,1.327,0,0,0,.194,1.061,0.983,0.983,0,0,0,.835.416q1.436,0,3.335-2.033-0.5,2.209.6,2.209h0Zm-0.113-5.288a0.679,0.679,0,0,1,.05.466,4.475,4.475,0,0,1-1.389,2.148,3.378,3.378,0,0,1-1.919,1.227q-0.2,0-.114-0.48a5,5,0,0,1,1.338-2.224,3.265,3.265,0,0,1,1.769-1.31A0.3,0.3,0,0,1,38.069,36.635Zm5.275-4.374a16.557,16.557,0,0,0-1.372,3.293A31.745,31.745,0,0,0,40.634,40.4a3.648,3.648,0,0,0-.068,1.348,0.481,0.481,0,0,0,.517.393,0.949,0.949,0,0,0,.607-0.252,1,1,0,0,0,.364-0.6q0.012-.07.032-0.346a16.92,16.92,0,0,1,.2-1.769,18.689,18.689,0,0,1,.491-1.937,18.167,18.167,0,0,1,.84-2.288q0.648-1.447.8-1.813a3.27,3.27,0,0,0,.208-0.683q0.122-.691-0.511-0.691A1.063,1.063,0,0,0,43.344,32.261Zm8.848,9.015A2.539,2.539,0,0,0,53.433,40.1a0.238,0.238,0,0,0-.266-0.322,1.674,1.674,0,0,0-.772.322,3.883,3.883,0,0,1-2.022.668,0.607,0.607,0,0,1-.716-0.791A5.654,5.654,0,0,1,50.81,37.7a2.831,2.831,0,0,1,1.437-1.3q0.217,0,.186.574-0.045.785,0.524,0.785a0.728,0.728,0,0,0,.436-0.2,1.235,1.235,0,0,0,.342-0.759,1.742,1.742,0,0,0-.19-1.151,0.925,0.925,0,0,0-.851-0.554q-1.154,0-2.658,1.717a6.885,6.885,0,0,0-1.764,3.193,1.8,1.8,0,0,0,.246,1.465A1.643,1.643,0,0,0,49.893,42,4.328,4.328,0,0,0,52.192,41.276Zm6.99,0.648a1.3,1.3,0,0,0,.665-0.2,0.733,0.733,0,0,0,.39-0.5,0.279,0.279,0,0,0-.18-0.311,0.454,0.454,0,0,1-.246-0.2,3.348,3.348,0,0,1-.079-0.4,3.686,3.686,0,0,1,.083-1.055,11.847,11.847,0,0,1,.574-1.928,6.1,6.1,0,0,0,.286-0.891q0.091-.515-0.583-0.516a0.738,0.738,0,0,0-.81-0.721,4.644,4.644,0,0,0-3.1,1.755,6.686,6.686,0,0,0-1.966,3.308,1.327,1.327,0,0,0,.194,1.061,0.983,0.983,0,0,0,.835.416q1.435,0,3.335-2.033-0.5,2.209.6,2.209h0Zm-0.113-5.288a0.679,0.679,0,0,1,.05.466,4.475,4.475,0,0,1-1.389,2.148,3.378,3.378,0,0,1-1.919,1.227q-0.2,0-.114-0.48a5,5,0,0,1,1.338-2.224,3.265,3.265,0,0,1,1.769-1.31A0.3,0.3,0,0,1,59.069,36.635ZM63.5,37.869a5.756,5.756,0,0,1,.284-0.715,5.979,5.979,0,0,0,.465-1.143,0.5,0.5,0,0,0-.094-0.4,0.518,0.518,0,0,0-.448-0.182,1.023,1.023,0,0,0-.578.188,1.083,1.083,0,0,0-.384.4,4.979,4.979,0,0,0-.259.788q-0.037.147-.112,0.4-0.286.99-.43,1.676-0.152.727-.227,1.154a4.659,4.659,0,0,0-.1,1.5,0.48,0.48,0,0,0,.493.46,1.022,1.022,0,0,0,.638-0.2,1.335,1.335,0,0,0,.409-0.688,7.713,7.713,0,0,1,1.783-3.07,3.944,3.944,0,0,1,1.712-1.365,0.474,0.474,0,0,1,.3.193,0.759,0.759,0,0,0,.609.3,0.493,0.493,0,0,0,.393-0.2,1.036,1.036,0,0,0,.214-0.483,0.848,0.848,0,0,0-.241-0.779,1.224,1.224,0,0,0-.918-0.328,2.776,2.776,0,0,0-1.753.888,12.791,12.791,0,0,0-1.934,2.311l-0.133.188Zm11,0a5.756,5.756,0,0,1,.284-0.715,5.979,5.979,0,0,0,.465-1.143,0.5,0.5,0,0,0-.094-0.4,0.518,0.518,0,0,0-.448-0.182,1.023,1.023,0,0,0-.578.188,1.083,1.083,0,0,0-.384.4,4.979,4.979,0,0,0-.259.788q-0.038.147-.112,0.4-0.286.99-.43,1.676-0.152.727-.227,1.154a4.659,4.659,0,0,0-.1,1.5,0.48,0.48,0,0,0,.493.46,1.022,1.022,0,0,0,.638-0.2,1.334,1.334,0,0,0,.409-0.688,7.715,7.715,0,0,1,1.784-3.07,3.944,3.944,0,0,1,1.712-1.365,0.474,0.474,0,0,1,.3.193,0.759,0.759,0,0,0,.609.3,0.493,0.493,0,0,0,.393-0.2,1.036,1.036,0,0,0,.214-0.483,0.848,0.848,0,0,0-.24-0.779,1.224,1.224,0,0,0-.918-0.328,2.776,2.776,0,0,0-1.753.888,12.791,12.791,0,0,0-1.934,2.311l-0.133.188Zm9.034,1.4a0.76,0.76,0,0,0-.475.234,4.017,4.017,0,0,1-2.552,1.213,0.746,0.746,0,0,1-.62-0.255,0.651,0.651,0,0,1-.155-0.536,0.25,0.25,0,0,1,.213-0.211,6.5,6.5,0,0,0,2.733-1.274A3.326,3.326,0,0,0,84,36.5a1.2,1.2,0,0,0-.224-0.99,1.168,1.168,0,0,0-.981-0.416,3.982,3.982,0,0,0-2.732,1.436,5.829,5.829,0,0,0-1.7,3.076,2.209,2.209,0,0,0,.262,1.737,1.677,1.677,0,0,0,1.449.624,4.151,4.151,0,0,0,2.464-.847,2.859,2.859,0,0,0,1.282-1.456q0.069-.392-0.282-0.392h0Zm-2.365-2.238a2.059,2.059,0,0,1,1.263-.75,0.283,0.283,0,0,1,.255.132,0.44,0.44,0,0,1,.051.325,2.038,2.038,0,0,1-.9,1.1,4.333,4.333,0,0,1-1.771.791A4.893,4.893,0,0,1,81.174,37.031Zm8.115,3.791a0.816,0.816,0,0,0,.868.592,1.666,1.666,0,0,0,1.032-.337,1.147,1.147,0,0,0,.5-0.636q0.058-.328-0.223-0.328a1.249,1.249,0,0,0-.346.07,1.1,1.1,0,0,1-.321.059q-0.3,0-.155-2.18,0.143-2.139-1.217-2.139-1.564,0-3.361,2.977a14.763,14.763,0,0,0,.714-2.156,1.3,1.3,0,0,0-.022-0.9,0.629,0.629,0,0,0-.492-0.17,0.818,0.818,0,0,0-.565.313,1.209,1.209,0,0,0-.344.589,19.332,19.332,0,0,1-.774,3.094,10.749,10.749,0,0,0-.4,1.254,0.629,0.629,0,0,0,.747.814,0.5,0.5,0,0,0,.31-0.146A0.968,0.968,0,0,0,85.5,41.22a14.043,14.043,0,0,1,1.684-2.306q1.313-1.561,1.734-1.562,0.445,0,.31,1.5a5.407,5.407,0,0,0,.063,1.969H89.288Zm8.244-4.242a1,1,0,0,0,1-.662,0.421,0.421,0,0,0-.038-0.349,0.57,0.57,0,0,0-.394-0.091q-0.182,0-2.074.164,0.8-1.717.817-1.811a0.529,0.529,0,0,0-.574-0.633,0.946,0.946,0,0,0-.87.715q-0.478,1.148-.849,1.857l-1.262.047a0.569,0.569,0,0,0-.643.492,0.52,0.52,0,0,0,.179.563,0.879,0.879,0,0,0,.517.176h0.123q0.146,0,.529-0.041a18.892,18.892,0,0,0-1.149,3.158,1.708,1.708,0,0,0,.176,1.313,1.259,1.259,0,0,0,1.1.457,3.292,3.292,0,0,0,1.873-.653,2.2,2.2,0,0,0,1.038-1.169,0.257,0.257,0,0,0-.063-0.226,0.323,0.323,0,0,0-.255-0.1,1.075,1.075,0,0,0-.56.252,4.066,4.066,0,0,1-.884.513,1.93,1.93,0,0,1-.65.114,0.288,0.288,0,0,1-.3-0.191,1.481,1.481,0,0,1,.016-0.671,13.677,13.677,0,0,1,.557-1.582,8,8,0,0,1,.561-1.307Zm5.65,5.344a1.3,1.3,0,0,0,.665-0.2,0.735,0.735,0,0,0,.39-0.5,0.28,0.28,0,0,0-.18-0.311,0.452,0.452,0,0,1-.246-0.2,3.292,3.292,0,0,1-.079-0.4,3.674,3.674,0,0,1,.083-1.055,11.871,11.871,0,0,1,.574-1.928,6.075,6.075,0,0,0,.286-0.891q0.092-.515-0.582-0.516a0.738,0.738,0,0,0-.811-0.721,4.644,4.644,0,0,0-3.1,1.755,6.684,6.684,0,0,0-1.966,3.308,1.327,1.327,0,0,0,.194,1.061,0.983,0.983,0,0,0,.835.416q1.435,0,3.335-2.033-0.5,2.209.6,2.209h0Zm-0.113-5.288a0.679,0.679,0,0,1,.049.466,4.473,4.473,0,0,1-1.389,2.148,3.378,3.378,0,0,1-1.919,1.227q-0.2,0-.114-0.48a5,5,0,0,1,1.338-2.224,3.268,3.268,0,0,1,1.769-1.31A0.3,0.3,0,0,1,103.069,36.635Zm5.275-4.374a16.5,16.5,0,0,0-1.372,3.293,31.805,31.805,0,0,0-1.338,4.846,3.657,3.657,0,0,0-.068,1.348,0.482,0.482,0,0,0,.517.393,0.949,0.949,0,0,0,.607-0.252,0.993,0.993,0,0,0,.364-0.6c0.009-.047.019-0.162,0.032-0.346a16.726,16.726,0,0,1,.2-1.769,18.566,18.566,0,0,1,.491-1.937,18.105,18.105,0,0,1,.84-2.288q0.647-1.447.8-1.813a3.292,3.292,0,0,0,.208-0.683q0.121-.691-0.511-0.691A1.062,1.062,0,0,0,108.344,32.261Z"/>
</svg>
