<svg xmlns="http://www.w3.org/2000/svg" width="70" height="70" viewBox="0 0 70 70">
  <defs>
    <style>
      .cls-1 {
        fill: #f0c540;
      }

      .cls-1, .cls-2 {
        fill-rule: evenodd;
      }

      .cls-2 {
        fill: #273f44;
      }
    </style>
  </defs>
  <path class="cls-1" d="M35,69.75A34.75,34.75,0,1,1,69.75,35,34.75,34.75,0,0,1,35,69.75ZM35,5A30,30,0,1,0,65,35,30,30,0,0,0,35,5Z"/>
  <path id="Forma_1" data-name="Forma 1" class="cls-2" d="M42.187,24.894a10.685,10.685,0,0,0-14.372,0,10.248,10.248,0,0,0-.956,13.328L35,49.194l8.13-10.957A10.251,10.251,0,0,0,42.187,24.894Zm-7.092,10.08a3.47,3.47,0,1,1,3.71-3.462A3.6,3.6,0,0,1,35.095,34.974Z"/>
</svg>
