<svg xmlns="http://www.w3.org/2000/svg" xmlns:xlink="http://www.w3.org/1999/xlink" preserveAspectRatio="xMidYMid" width="60.031" height="56" viewBox="0 0 60.031 56">
  <defs>
    <style>
      .cls-1 {
        fill: #f0c540;
        fill-rule: evenodd;
      }
    </style>
  </defs>
  <path d="M58.768,45.657 C57.943,46.334 56.948,46.746 55.887,46.847 C55.854,46.851 55.820,46.852 55.788,46.852 C55.632,46.852 55.489,46.808 55.355,46.745 C56.353,50.565 56.470,54.740 56.476,54.961 C56.482,55.235 56.376,55.500 56.182,55.695 C55.990,55.887 55.729,55.995 55.457,55.995 C55.452,55.995 55.449,55.995 55.444,55.995 L50.305,55.933 C49.742,55.926 49.291,55.468 49.298,54.910 C49.305,54.357 49.759,53.912 50.317,53.912 C50.321,53.912 50.325,53.912 50.329,53.912 L54.386,53.961 C54.257,51.974 53.834,47.596 52.509,44.696 C51.858,43.271 44.081,39.916 35.998,41.493 C34.957,41.696 34.057,41.612 33.301,41.269 L24.091,52.991 C24.905,53.365 25.904,53.618 27.128,53.633 C28.133,53.644 29.957,53.662 32.160,53.683 C35.974,53.720 40.924,53.768 44.736,53.814 C45.299,53.821 45.749,54.279 45.743,54.837 C45.736,55.391 45.281,55.835 44.724,55.835 C44.720,55.835 44.715,55.835 44.711,55.835 C40.900,55.789 35.952,55.741 32.140,55.704 C29.935,55.683 28.110,55.665 27.105,55.654 C25.386,55.633 23.973,55.218 22.822,54.606 L22.764,54.680 L22.485,54.421 C20.398,53.188 19.262,51.300 18.869,50.055 L0.262,13.692 C0.250,13.668 0.238,13.644 0.228,13.619 C-0.195,12.596 -0.004,11.415 0.750,10.378 C1.781,8.963 4.117,7.535 7.585,7.773 C9.136,7.880 9.992,9.680 11.176,12.170 C12.376,14.696 13.910,17.921 16.474,20.000 L17.031,20.000 L17.031,20.382 C17.742,20.885 18.506,21.326 19.379,21.620 C21.243,22.248 23.185,22.967 24.991,23.879 C25.328,21.269 27.532,19.301 30.206,19.277 C30.254,19.277 30.305,19.280 30.355,19.287 L46.298,21.480 C46.331,21.479 46.364,21.479 46.397,21.479 C49.047,21.479 50.162,22.008 50.188,25.011 C50.190,25.280 50.197,25.534 50.203,25.773 C50.236,27.037 50.264,28.128 49.512,28.900 C48.844,29.585 47.855,29.673 47.169,29.679 L36.237,29.769 C36.499,30.389 36.823,30.874 37.197,31.199 C37.197,31.199 37.834,31.712 40.049,32.519 C41.586,33.078 43.103,32.968 45.024,32.828 C49.367,32.511 53.211,34.755 57.879,40.333 C58.154,40.662 58.421,40.946 58.679,41.221 C59.430,42.019 60.079,42.709 60.016,43.685 C59.958,44.579 59.276,45.239 58.768,45.657 ZM9.332,13.032 C8.713,11.731 7.867,9.950 7.416,9.784 C4.802,9.608 3.080,10.631 2.403,11.561 C2.211,11.825 1.921,12.334 2.102,12.821 L5.775,20.000 L13.571,20.000 C11.598,17.784 10.313,15.097 9.332,13.032 ZM18.724,23.534 C17.622,23.163 16.647,22.631 15.770,22.000 L6.798,22.000 L20.727,49.220 C20.756,49.277 20.779,49.335 20.797,49.396 C20.825,49.487 21.232,50.753 22.431,51.878 L31.797,39.958 C30.955,38.677 30.697,36.839 30.433,34.915 C30.193,33.158 29.944,31.342 29.241,30.101 C27.482,26.997 23.765,25.231 18.724,23.534 ZM57.188,42.599 C56.923,42.317 56.623,41.997 56.310,41.623 C52.056,36.541 48.831,34.577 45.179,34.843 C43.179,34.988 41.297,35.125 39.347,34.416 C36.889,33.520 36.052,32.891 35.854,32.720 C34.925,31.912 34.254,30.661 33.859,29.002 C33.788,28.703 33.858,28.388 34.049,28.146 C34.240,27.904 34.532,27.762 34.843,27.759 L47.151,27.659 C47.886,27.652 48.040,27.503 48.046,27.496 C48.205,27.333 48.183,26.497 48.166,25.825 C48.159,25.574 48.152,25.308 48.150,25.028 C48.140,23.865 47.982,23.684 47.951,23.659 C47.733,23.489 46.688,23.497 46.239,23.501 C46.194,23.501 46.140,23.498 46.091,23.491 L30.154,21.300 C28.500,21.348 27.145,22.600 26.987,24.239 C26.976,24.355 26.955,24.622 26.940,24.998 C28.602,26.079 30.047,27.398 31.018,29.111 C31.911,30.688 32.187,32.699 32.453,34.643 C32.724,36.621 33.005,38.666 33.932,39.323 C34.314,39.594 34.862,39.655 35.605,39.510 C43.808,37.910 53.100,41.091 54.366,43.863 C54.577,44.324 54.763,44.817 54.934,45.324 C55.095,45.063 55.359,44.868 55.691,44.836 C56.344,44.773 56.958,44.520 57.466,44.102 C57.852,43.784 57.954,43.609 57.977,43.558 C57.916,43.372 57.497,42.927 57.188,42.599 ZM26.260,18.438 C25.961,18.467 25.656,18.482 25.357,18.482 L25.356,18.482 C20.534,18.481 16.547,14.887 16.084,10.122 C15.591,5.047 19.355,0.520 24.473,0.032 C24.773,0.003 25.076,-0.011 25.376,-0.011 C30.200,-0.011 34.187,3.583 34.650,8.349 C34.888,10.807 34.147,13.211 32.563,15.117 C30.978,17.022 28.740,18.202 26.260,18.438 ZM25.376,2.009 C25.141,2.009 24.903,2.021 24.668,2.043 C20.669,2.425 17.728,5.962 18.113,9.928 C18.475,13.652 21.589,16.461 25.356,16.461 L25.357,16.461 C25.592,16.461 25.830,16.449 26.065,16.427 C28.003,16.242 29.752,15.320 30.990,13.831 C32.228,12.342 32.807,10.464 32.621,8.543 C32.260,4.818 29.145,2.009 25.376,2.009 Z" class="cls-1"/>
</svg>
