<svg xmlns="http://www.w3.org/2000/svg" xmlns:xlink="http://www.w3.org/1999/xlink" preserveAspectRatio="xMidYMid" width="60" height="55" viewBox="0 0 60 55">
  <defs>
    <style>
      .cls-1 {
        fill: #f0c540;
        fill-rule: evenodd;
      }
    </style>
  </defs>
  <path d="M24.232,36.371 C24.156,36.925 23.682,37.326 23.139,37.327 C23.089,37.327 23.038,37.323 22.986,37.316 L13.263,35.963 C12.897,35.913 12.581,35.681 12.420,35.348 C12.260,35.014 12.276,34.622 12.464,34.303 L16.009,28.282 C16.208,27.944 16.569,27.737 16.960,27.737 L24.215,27.737 C24.825,27.737 25.319,28.233 25.319,28.845 C25.319,29.457 24.825,29.953 24.215,29.953 L17.591,29.953 L15.210,33.997 L23.290,35.121 C23.894,35.205 24.316,35.765 24.232,36.371 ZM26.577,36.964 C26.367,36.733 26.265,36.424 26.295,36.113 L26.999,28.740 C27.053,28.171 27.529,27.737 28.098,27.737 L35.683,27.737 C36.044,27.737 36.382,27.914 36.588,28.210 C39.889,32.939 41.627,35.467 41.754,35.724 C41.925,36.067 41.907,36.475 41.705,36.801 C41.504,37.128 41.149,37.326 40.766,37.326 L27.394,37.326 C27.083,37.326 26.786,37.195 26.577,36.964 ZM38.686,35.110 C37.696,33.673 36.244,31.582 35.108,29.953 L29.102,29.953 L28.610,35.110 L38.686,35.110 ZM55.284,48.592 L52.181,48.592 C52.091,52.130 49.208,54.985 45.659,54.985 C42.054,54.985 39.120,52.043 39.120,48.426 C39.120,44.809 42.054,41.867 45.659,41.867 C48.547,41.867 50.975,43.767 51.839,46.376 L55.207,46.376 C56.162,45.774 57.473,40.919 57.750,38.279 L45.574,35.389 C45.343,35.334 45.136,35.206 44.983,35.024 L37.658,26.289 L28.645,26.289 L16.804,26.289 C14.353,26.289 13.207,28.320 13.160,28.407 C13.134,28.453 13.101,28.505 13.070,28.547 L9.261,33.595 C9.144,33.751 8.986,33.873 8.806,33.948 L3.691,36.089 L2.200,42.093 C2.266,43.776 3.631,46.376 4.715,46.376 L7.635,46.376 C8.499,43.767 10.927,41.867 13.815,41.867 C16.702,41.867 19.131,43.767 19.994,46.376 L35.359,46.376 C35.969,46.376 36.463,46.872 36.463,47.484 C36.463,48.096 35.969,48.592 35.359,48.592 L20.337,48.592 C20.247,52.130 17.364,54.985 13.815,54.985 C10.266,54.985 7.383,52.130 7.293,48.592 L4.715,48.592 C1.829,48.592 -0.012,44.242 -0.012,41.967 C-0.012,41.877 -0.001,41.787 0.021,41.699 L1.681,35.014 C1.688,34.987 1.706,34.968 1.715,34.942 C1.739,34.869 1.773,34.805 1.811,34.738 C1.846,34.677 1.879,34.619 1.924,34.566 C1.968,34.515 2.020,34.474 2.073,34.431 C2.134,34.382 2.193,34.338 2.263,34.302 C2.287,34.290 2.303,34.269 2.327,34.259 L7.680,32.019 L11.265,27.267 C11.581,26.727 13.316,24.073 16.804,24.073 L28.645,24.073 L38.172,24.073 C38.498,24.073 38.808,24.217 39.018,24.468 L46.438,33.317 L59.161,36.336 C59.659,36.455 60.012,36.901 60.012,37.415 C60.012,38.320 58.812,48.592 55.284,48.592 ZM45.659,44.083 C43.272,44.083 41.329,46.031 41.329,48.426 C41.329,50.821 43.272,52.769 45.659,52.769 C48.046,52.769 49.989,50.821 49.989,48.426 C49.989,46.031 48.046,44.083 45.659,44.083 ZM13.815,52.769 C16.202,52.769 18.145,50.821 18.145,48.426 C18.145,46.031 16.202,44.083 13.815,44.083 C11.427,44.083 9.485,46.031 9.485,48.426 C9.485,50.821 11.427,52.769 13.815,52.769 ZM32.178,19.004 C32.610,19.437 32.610,20.139 32.178,20.571 C31.747,21.004 31.048,21.004 30.616,20.571 C28.840,18.789 25.949,18.789 24.172,20.572 C23.956,20.788 23.673,20.896 23.391,20.896 C23.108,20.896 22.826,20.788 22.610,20.572 C22.178,20.139 22.178,19.437 22.610,19.005 C25.248,16.358 29.541,16.359 32.178,19.004 ZM17.386,14.873 C17.103,14.873 16.821,14.765 16.605,14.548 C16.173,14.116 16.173,13.414 16.605,12.982 C19.486,10.091 23.318,8.499 27.394,8.499 C31.469,8.499 35.301,10.090 38.183,12.981 C38.615,13.414 38.615,14.115 38.183,14.548 C37.752,14.981 37.053,14.981 36.621,14.548 C34.156,12.076 30.879,10.715 27.394,10.715 C23.908,10.715 20.631,12.076 18.167,14.548 C17.951,14.765 17.669,14.873 17.386,14.873 ZM43.407,8.849 C43.125,8.849 42.842,8.741 42.626,8.525 C34.228,0.100 20.561,0.100 12.162,8.525 C11.731,8.957 11.032,8.957 10.600,8.525 C10.169,8.092 10.169,7.390 10.600,6.958 C19.860,-2.331 34.928,-2.331 44.188,6.958 C44.620,7.390 44.620,8.092 44.188,8.525 C43.973,8.741 43.690,8.849 43.407,8.849 Z" class="cls-1"/>
</svg>
